<svg width="1110" height="375" viewBox="0 0 1110 375" fill="none"
    xmlns="http://www.w3.org/2000/svg">
    <path d="M65.3496 189.773C48.8595 198.864 29.9265 202.841 11.6042 202.841C-0.610621 169.886 31.7587 140.909 69.0141 115.909C106.269 91.4773 129.478 79.5455 159.404 79.5455C210.706 79.5455 233.304 109.091 233.304 148.864V293.182C233.304 319.886 244.297 330.114 259.566 330.114C272.391 330.114 282.774 321.591 290.103 310.795L301.096 318.182C281.553 350 260.177 372.159 224.143 372.159C194.827 372.159 165.511 357.386 165.511 307.955C151.464 350.568 113.598 375 70.2355 375C26.8728 375 0.00012207 350.568 0.00012207 317.045C0.00012207 294.886 10.3828 277.273 51.9133 256.818L160.015 205.114V168.182C160.015 136.932 149.021 117.045 116.652 117.045C83.6719 117.045 53.1347 147.727 65.3496 189.773ZM65.9603 297.159C65.9603 314.773 78.7859 329.545 100.773 329.545C133.753 329.545 160.015 302.273 160.015 260.227V228.409L112.988 250.568C77.5645 266.477 65.9603 278.409 65.9603 297.159ZM511.689 145.455C469.547 145.455 443.896 150 420.077 177.273V313.068C420.077 347.727 434.124 354.545 471.99 359.091V369.318H307.09V359.091C335.184 353.409 346.788 347.159 346.788 313.068V127.273H300.372V117.045L414.581 75.5682V159.091C442.675 100 477.487 78.9773 512.299 78.9773H520.239V145.455H511.689ZM584.023 277.841V127.273H541.271V119.318L646.929 13.6364H657.312V85.2273H744.037V127.273H657.312V267.045C657.312 302.841 672.581 325 703.118 325C724.494 325 738.541 314.205 746.48 291.477L757.474 294.318C745.87 347.159 717.776 375 669.527 375C611.506 375 584.023 338.068 584.023 277.841ZM775.924 10.2273V0H1103.28L1108.17 117.614H1095.95C1075.8 43.1818 1042.82 21.0227 976.247 21.0227H897.462V170.455H928.61C974.415 170.455 997.623 141.477 1007.4 94.3182H1019.61V267.614H1007.4C998.234 220.455 974.415 191.477 928.61 191.477H897.462V348.295H978.08C1044.65 348.295 1077.63 326.136 1097.79 251.705H1110L1105.11 369.318H775.924V359.091C808.293 352.841 821.73 347.159 821.73 313.068V56.25C821.73 22.1591 808.293 16.4773 775.924 10.2273Z" fill="#252224"/>
</svg>
