<svg width="240" height="86" viewBox="0 0 240 86" fill="none" xmlns="http://www.w3.org/2000/svg">
<g clip-path="url(#clip0_625_84)">
<path d="M31.5799 38.7456V40.9683H0V1.10156H5.58V38.7382H31.5799V38.7456Z" fill="#252322"/>
<path d="M67.9364 28.7774H43.0254L35.9509 40.9612H33.5928L54.8839 4.40992L51.0838 1.10938H58.3911L81.8076 40.9092H74.8457L67.9439 28.7774H67.9364ZM44.1219 26.9562H66.9L55.6274 7.25701L44.1219 26.9562Z" fill="#252322"/>
<path d="M108.205 23.3133L91.1199 23.3728V40.9683H85.4272V1.10156H105.735C114.649 1.10156 120.116 6.62477 120.116 12.319C120.116 18.5261 115.055 23.4248 108.205 23.3059V23.3133ZM104.293 2.46936H91.1199V22.228H105.674C111.54 22.228 113.673 20.9197 113.673 12.4899C113.673 5.31645 109.933 2.46936 104.293 2.46936Z" fill="#252322"/>
<path d="M131.043 1.10156V40.9608H126.154V1.10156H131.043Z" fill="#252322"/>
<path d="M154.866 0.0212202C160.851 0.303699 165.62 1.21804 169.075 3.89416V13.7438C166.086 4.45911 162.398 1.32954 154.115 1.10653C140.536 0.653081 134.844 13.4613 158.658 21.0362C163.029 22.404 178.68 28.3212 169.585 41.3672C169.24 30.8337 162.511 29.124 151.058 24.6266C143.405 21.668 137.773 18.0776 138.291 10.6737C138.696 5.09097 146.289 -0.372764 154.858 0.0286539L154.866 0.0212202ZM142.038 29.5774C142.038 29.5774 143.42 35.0412 146.582 38.4012V40.8469C144.915 40.334 143.36 39.6501 142.038 38.7952V29.57V29.5774Z" fill="#252322"/>
<path d="M31.5799 83.1522V85.3749H0V45.5156H5.58V83.1522H31.5799Z" fill="#252322"/>
<path d="M67.9364 73.1911H43.0255L35.9509 85.3749H33.5928L54.8764 48.8162L51.0763 45.5156H58.3836L81.8001 85.3154H74.8382L67.9364 73.1837V73.1911ZM44.1219 71.3699H66.9L55.6274 51.6707L44.1219 71.3699Z" fill="#252322"/>
<path d="M115.28 46.7723H97.6764C89.6782 46.7723 84.5638 51.1581 83.4072 52.355L85.9982 45.5234H123.736L91.8636 84.1264H108.716C116.714 84.1264 121.829 79.7406 122.985 78.5438L120.394 85.3753H83.4072L115.28 46.7723Z" fill="#252322"/>
<path d="M150.607 85.9993C138.411 85.9399 130.413 77.3466 130.067 66.5826V45.5156H135.707V66.5826C135.94 77.1756 141.573 85.2039 150.607 85.2039C159.642 85.2039 165.162 77.1756 165.162 66.5826V45.5156H170.742V66.5826C170.742 77.3466 162.804 85.9399 150.607 85.9993Z" fill="#252322"/>
<path d="M177.704 45.5156H183.224V83.7246H196.164C204.162 83.7246 209.276 79.1678 210.433 77.971L207.842 85.3749H177.696V45.5156H177.704Z" fill="#252322"/>
<path d="M221.653 45.5156V85.3749H216.764V45.5156H221.653Z" fill="#252322"/>
<path d="M234.307 57.4778C234.307 56.0505 235.629 54.7422 237.184 54.7422C238.738 54.7422 240 56.0505 240 57.4778C240 59.0686 238.678 60.3843 237.184 60.3843C235.689 60.3843 234.307 59.076 234.307 57.4778Z" fill="url(#paint0_linear_625_84)"/>
<ellipse cx="237.081" cy="72.9409" rx="2.91892" ry="2.86667" fill="url(#paint1_linear_625_84)"/>
</g>
<defs>
<linearGradient id="paint0_linear_625_84" x1="243.973" y1="51.6027" x2="233.834" y2="63.494" gradientUnits="userSpaceOnUse">
<stop stop-color="#252322"/>
<stop offset="1" stop-color="#989898"/>
</linearGradient>
<linearGradient id="paint1_linear_625_84" x1="244.075" y1="66.884" x2="233.787" y2="79.0604" gradientUnits="userSpaceOnUse">
<stop stop-color="#252322"/>
<stop offset="1" stop-color="#989898"/>
</linearGradient>
<clipPath id="clip0_625_84">
<rect width="240" height="86" fill="white"/>
</clipPath>
</defs>
</svg>
