<svg xmlns="http://www.w3.org/2000/svg" fill="none" viewBox="0 0 103 39"><g fill="#252322" clip-path="url(#a)"><path d="M13.52 17.571v1.008H0V.5h2.389v17.068H13.52v.003ZM29.085 13.051H18.42l-3.029 5.525h-1.01l9.116-16.575L21.87.504H25l10.025 18.049h-2.98l-2.955-5.502h-.004Zm-10.195-.826h9.752l-4.826-8.933-4.926 8.933ZM46.325 10.573l-7.315.027v7.98h-2.437V.5h8.694c3.817 0 6.158 2.505 6.158 5.087 0 2.815-2.167 5.036-5.1 4.982v.004ZM44.65 1.12h-5.64v8.96h6.232c2.51 0 3.424-.593 3.424-4.416 0-3.253-1.601-4.544-4.016-4.544ZM56.103.5v18.076H54.01V.5h2.093ZM66.302.01c2.563.128 4.604.543 6.083 1.756v4.467c-1.28-4.21-2.858-5.63-6.404-5.73-5.814-.206-8.25 5.602 1.945 9.037 1.871.62 8.572 3.304 4.678 9.22-.148-4.777-3.029-5.552-7.932-7.592-3.276-1.341-5.688-2.97-5.466-6.327.174-2.532 3.424-5.01 7.093-4.828l.003-.003ZM60.81 13.413s.592 2.478 1.946 4.002v1.109a7.641 7.641 0 0 1-1.946-.93V13.41v.003ZM13.52 37.708v1.008H0V20.641h2.389v17.067H13.52ZM29.085 33.191H18.42l-3.029 5.525h-1.01l9.113-16.579-1.627-1.496h3.128l10.026 18.048h-2.98l-2.956-5.501v.003Zm-10.195-.826h9.752l-4.826-8.933-4.926 8.933ZM49.355 21.21h-7.537c-3.424 0-5.614 1.99-6.109 2.533l1.11-3.098h16.156L39.329 38.15h7.215c3.425 0 5.614-1.99 6.11-2.532l-1.11 3.098H35.71L49.355 21.21ZM64.48 39c-5.222-.028-8.647-3.924-8.795-8.806v-9.553H58.1v9.553c.1 4.804 2.511 8.445 6.38 8.445 3.867 0 6.23-3.641 6.23-8.445v-9.553h2.39v9.553c0 4.882-3.4 8.778-8.62 8.805ZM76.08 20.64h2.363v17.328h5.54c3.424 0 5.613-2.067 6.109-2.61l-1.11 3.358H76.076V20.641h.003ZM94.896 20.64v18.076h-2.093V20.641h2.093ZM100.313 26.065c0-.648.566-1.24 1.232-1.24.665 0 1.206.593 1.206 1.24 0 .721-.566 1.318-1.206 1.318s-1.232-.593-1.232-1.318Zm2.438 7.126c0 .648-.566 1.24-1.232 1.24-.617 0-1.206-.592-1.206-1.24 0-.721.592-1.29 1.206-1.29.666 0 1.232.566 1.232 1.29Z"/></g><defs><clipPath id="a"><path fill="#fff" d="M0 0h102.751v39H0z"/></clipPath></defs></svg>