<svg width="512" height="364" viewBox="0 0 512 364" fill="none" xmlns="http://www.w3.org/2000/svg">
<g clip-path="url(#clip0_473_593)">
<path d="M156.143 30.048V28.0781H185.247V30.048C180.018 31.1314 177.848 32.2149 177.848 38.42V56.6414H205.472V38.42C205.472 32.2149 203.302 31.1314 198.073 30.048V28.0781H227.177V30.048C221.948 31.1314 219.777 32.2149 219.777 38.42V81.7574C219.777 87.9626 221.948 89.046 227.177 90.1294V92.0993H198.073V90.1294C203.302 89.046 205.472 87.9626 205.472 81.7574V60.5812H177.848V81.7574C177.848 87.9626 180.018 89.046 185.247 90.1294V92.0993H156.143V90.1294C161.372 89.046 163.543 87.9626 163.543 81.7574V38.42C163.543 32.2149 161.372 31.1314 156.143 30.048Z" fill="#252322"/>
<path d="M239.304 116.364V115.039C262.675 90.0781 270.941 80.9086 270.941 69.7015C270.941 61.6527 265.941 56.6605 257.266 56.6605C249.102 56.6605 243.387 62.1621 243.081 71.4334H241.243C241.243 58.1887 249.51 49.1211 261.449 49.1211C272.778 49.1211 279.717 55.7435 279.717 66.7468C279.717 79.7879 268.185 89.3649 249.918 108.009H282.677V116.364H239.304Z" fill="#252322"/>
<path d="M328.332 0.8125C347.547 0.8125 361.521 12.1992 361.521 34.2546C361.521 56.4125 345.8 69.5431 325.763 69.5431C306.549 69.5431 292.574 58.1564 292.574 36.101C292.574 13.9431 308.296 0.8125 328.332 0.8125ZM325.763 5.32615C314.563 5.32615 309.117 13.9431 309.117 32.5107C309.117 47.5903 315.078 65.0295 328.332 65.0295C339.532 65.0295 344.978 56.4125 344.978 37.8449C344.978 22.7652 339.019 5.32615 325.763 5.32615Z" fill="#252322"/>
<path d="M123.96 221.615L105.712 171.568L87.6733 221.615H85.471L65.1254 166.124C62.2938 158.48 61.0353 156.177 57.3646 154.606V152.512H83.8979V154.606C79.1785 155.339 77.6054 158.9 80.2273 166.542L91.344 198.685L103.09 164.344C100.468 157.434 97.951 155.654 95.0146 154.606V152.512H123.016V154.606C118.087 155.339 115.989 158.586 118.716 166.542L129.833 198.79L141.054 167.274C144.41 157.852 142.313 155.654 135.916 154.606V152.512H155.842V154.606C151.961 156.072 148.816 159.736 145.564 168.636L126.162 221.615H123.96Z" fill="#252322"/>
<path d="M172.988 241.943V243.409H152.118V241.943C157.362 240.477 161.033 237.021 163.654 230.425L186.202 173.992H187.775L210.744 231.473C213.575 238.487 216.091 240.581 220.707 241.943V243.409H196.586V241.943C202.248 241.001 203.822 238.697 201.41 232.415L198.053 223.725H170.472L167.535 231.263C165.123 237.649 166.906 241.001 172.988 241.943ZM172.779 217.862H195.746L184.211 188.545L172.779 217.862Z" fill="#252322"/>
<path d="M263.746 203.439H228.612V201.345C235.64 200.401 238.575 199.041 238.575 192.445V139.571H238.052C225.362 139.571 219.384 144.283 216.028 159.463H213.721V135.383H278.637V159.463H276.331C272.975 144.283 266.997 139.571 254.308 139.571H253.783V192.445C253.783 199.041 256.72 200.401 263.746 201.345V203.439Z" fill="#252322"/>
<path d="M302.364 156.833V155.367H354.592L356.584 173.272H354.907C351.445 161.859 346.202 158.823 336.658 158.823H319.773V186.778H329.946C336.658 186.778 339.49 182.484 340.959 175.366H342.636V201.645H340.959C339.49 194.525 336.658 190.233 329.946 190.233H319.773V219.968H337.497C346.936 219.968 352.18 216.932 355.64 205.519H357.319L355.326 223.424H302.364V221.958C307.923 220.596 310.231 219.968 310.231 214V164.791C310.231 158.823 307.923 158.195 302.364 156.833Z" fill="#252322"/>
<path d="M382.269 144.894V142.719H414.524C435.338 142.719 445.69 148.702 445.69 159.69C445.69 169.916 436.864 175.9 425.312 178.075C428.908 178.619 431.742 180.36 434.249 184.603L444.709 202.445C448.305 208.537 449.505 210.712 452.556 211.256V213.433H432.396L417.686 185.365C415.833 181.884 414.961 180.252 410.711 180.252H406.243V202.009C406.243 208.864 408.641 210.06 414.416 211.256V213.433H382.269V211.256C388.046 210.06 390.442 208.864 390.442 202.009V154.141C390.442 147.288 388.046 146.092 382.269 144.894ZM412.237 147.071H406.243V175.9H413.762C422.153 175.9 428.691 169.916 428.691 161.431C428.691 154.686 425.967 147.071 412.237 147.071Z" fill="#252322"/>
<path d="M0.182007 284.293V281.863H34.979C63.3277 281.863 79.8746 295.467 79.8746 318.667C79.8746 344.176 58.9476 360.817 35.3441 360.817H0.182007V358.387C6.63041 357.051 9.30712 355.715 9.30712 348.063V294.618C9.30712 286.965 6.63041 285.629 0.182007 284.293ZM32.4241 286.722H26.949V355.958H36.0741C50.9176 355.958 60.2861 339.195 60.2861 320.49C60.2861 301.419 52.3776 286.722 32.4241 286.722Z" fill="#252322"/>
<path d="M96.7502 260.995V259.332H125.428V260.995C119.121 262.54 116.503 263.252 116.503 270.024V325.857C116.503 332.629 119.121 333.343 125.428 334.886V336.55H96.7502V334.886C103.057 333.343 105.675 332.629 105.675 325.857V270.024C105.675 263.252 103.057 262.54 96.7502 260.995Z" fill="#252322"/>
<path d="M163.177 348.448V350.825H139.021V348.448C146.042 345.835 149.136 341.321 153.182 331.46L177.694 271.23H180.432L204.944 330.985C209.823 342.984 212.797 346.429 217.438 348.448V350.825H184.953V348.448C189.831 347.736 192.212 343.221 188.879 334.906L188.047 332.768H158.061L157.346 334.668C154.014 343.103 156.632 347.379 163.177 348.448ZM162.106 322.67H184L173.054 294.872L162.106 322.67Z" fill="#252322"/>
<path d="M233.012 253.858V252.195H267.4C285.726 252.195 296.197 258.847 296.197 271.083C296.197 283.082 286.797 290.21 272.28 291.754C274.065 292.585 275.612 294.13 277.396 296.625L292.865 318.365C297.388 324.78 300.006 327.155 303.813 327.749V329.413H287.511L266.449 297.457C263.95 293.654 261.69 292.705 257.643 292.705H252.765V318.72C252.765 325.492 255.977 326.324 263.474 327.749V329.413H233.012V327.749C239.319 326.206 241.937 325.492 241.937 318.72V262.887C241.937 256.115 239.319 255.403 233.012 253.858ZM266.449 256.115H252.765V288.902H266.568C278.467 288.902 285.011 281.775 285.011 271.916C285.011 262.767 279.538 256.115 266.449 256.115Z" fill="#252322"/>
<path d="M318.88 283.117V280.742H353.982V283.117C347.676 284.425 345.058 285.731 345.058 293.215V345.486C345.058 352.97 347.676 354.277 353.982 355.583V357.96H318.88V355.583C325.185 354.277 327.803 352.97 327.803 345.486V293.215C327.803 285.731 325.185 284.425 318.88 283.117Z" fill="#252322"/>
<path d="M367.608 261.707V259.332H434.243V286.655H431.626C427.817 269.43 421.036 264.084 406.638 264.084H393.786V294.97H396.284C406.161 294.97 411.516 288.199 413.539 277.151H416.157V317.542H413.539C411.516 306.494 406.161 299.722 396.284 299.722H393.786V331.798H406.638C421.036 331.798 427.817 326.452 431.626 309.226H434.243V336.55H367.608V334.173C373.913 332.867 376.531 331.56 376.531 324.076V271.805C376.531 264.321 373.913 263.015 367.608 261.707Z" fill="#252322"/>
<path d="M485.014 358.679C492.868 358.679 498.699 354.639 498.699 347.749C498.699 326.959 455.742 334.206 455.742 306.17C455.742 292.865 466.69 283.836 483.706 283.836C494.177 283.836 501.317 286.925 507.267 290.489V311.754H504.649C500.602 295.717 490.25 288.588 481.207 288.588C473.829 288.588 468.593 292.628 468.593 297.973C468.593 316.386 511.074 309.14 511.074 339.314C511.074 354.045 500.007 363.431 482.396 363.431C471.211 363.431 463.238 360.698 456.931 356.777V332.543H459.549C463.001 351.67 476.328 358.679 485.014 358.679Z" fill="#252322"/>
</g>
<defs>
<clipPath id="clip0_473_593">
<rect width="511.875" height="364" fill="white"/>
</clipPath>
</defs>
</svg>
